<svg id="Layer_1" data-name="Layer 1" xmlns="http://www.w3.org/2000/svg" viewBox="0 0 666.05 666.06"><defs><style>.cls-1{fill:#ff2f4d;}.cls-2{fill:#2a2a2a;}</style></defs><title>Mode_Logo_Icon_Dark</title><circle class="cls-1" cx="333.03" cy="332.39" r="83.3"/><path class="cls-2" d="M471,168.25C653.88,152.24,815.73,288,831.74,471S712,815.73,529,831.74a331.44,331.44,0,0,1-190.5-40.46,81.09,81.09,0,0,1,78.72-141.79,169.86,169.86,0,0,0,97.64,20.69C608.74,662,678.4,578.94,670.18,485.1S578.94,321.6,485.1,329.81,321.6,421.06,329.82,514.9A81.09,81.09,0,1,1,168.26,529C152.24,346.12,288,184.27,471,168.25Z" transform="translate(-166.97 -166.97)"/></svg>