<svg xmlns="http://www.w3.org/2000/svg" viewBox="0 0 822.59 236.04"><defs><style>.cls-1{fill:#2a2a2a;}.cls-2{fill:#ff2f4d;}</style></defs><title>Asset 45</title><g id="Layer_2" data-name="Layer 2"><g id="Layer_1-2" data-name="Layer 1"><path class="cls-1" d="M252.19,131.33V224.8A11.21,11.21,0,0,1,241,236H219.55a11.21,11.21,0,0,1-11.21-11.21V134.39c0-20-10.19-32.29-28.55-32.29-19.37,0-31.61,12.92-31.61,38.41V224.8A11.2,11.2,0,0,1,137,236H115.55a11.21,11.21,0,0,1-11.21-11.21V134.39c0-20-10.2-32.29-28.55-32.29-18.69,0-31.95,12.92-31.95,38.41V224.8A11.21,11.21,0,0,1,32.63,236H11.21A11.21,11.21,0,0,1,0,224.8V77.28A11.21,11.21,0,0,1,11.21,66.07H32.63A11.21,11.21,0,0,1,43.84,77.28v6.81c9.52-14.28,25.49-22.77,47.25-22.77,21.07,0,36.7,8.83,46.22,24.47,10.54-15.3,27.53-24.47,50.64-24.47C226.7,61.32,252.19,88.85,252.19,131.33Z"/><path class="cls-1" d="M633.56,10.9V220.48a10.9,10.9,0,0,1-10.9,10.9H601.82a10.9,10.9,0,0,1-10.9-10.9v-8.6C579,227.09,561.5,236,537.37,236c-44.29,0-80.65-38-80.65-87.26s36.36-87.27,80.65-87.27c24.13,0,41.65,8.93,53.55,24.13V10.9A10.9,10.9,0,0,1,601.82,0h20.84A10.9,10.9,0,0,1,633.56,10.9ZM590.92,148.75c0-27.77-19.5-46.61-45.62-46.61-26.44,0-45.94,18.84-45.94,46.61s19.5,46.6,45.94,46.6C571.42,195.35,590.92,176.51,590.92,148.75Z"/><path class="cls-1" d="M743,197.37c13.07,0,24.07-4.35,31.7-10.91a11,11,0,0,1,12.7-1.33l15.83,9.14a10.9,10.9,0,0,1,2.36,17c-15.44,15.83-37,24.69-63.25,24.69-55.49,0-90.5-38-90.5-87.19S687.18,61.63,739,61.63c48.88,0,83.56,38.64,83.56,87.19,0,2.59-.11,5.06-.31,7.47a10.91,10.91,0,0,1-10.86,10h-115C702.37,188.12,720.54,197.37,743,197.37Zm37-64.07c-5.29-23.78-23.12-33.36-41-33.36-22.79,0-38.31,12.22-43.26,33.36Z"/><circle class="cls-2" cx="354.45" cy="148.65" r="21.82"/><path class="cls-1" d="M346.85,61.93a87.22,87.22,0,1,1-34.69,163.18A21.24,21.24,0,0,1,332.78,188a44.75,44.75,0,1,0-22.9-35.25,21.24,21.24,0,1,1-42.31,3.7A87.32,87.32,0,0,1,346.85,61.93Z"/></g></g></svg>